<svg xmlns="http://www.w3.org/2000/svg" width="360" height="190" viewBox="0 0 360 190" role="img" aria-labelledby="title desc"><title id="title">Most Used Languages — sidumandr</title><desc id="desc">Code bytes · non-fork repos. Updated 2026-10-10T03:58:55.822Z. Token-visible data.</desc><style>text{font-family:Inter,-apple-system,BlinkMacSystemFont,Segoe UI,Helvetica,Arial,sans-serif}.title{fill:#f0f6fc;font-size:15px;font-weight:600;letter-spacing:-.2px}.label{fill:#919aa6;font-size:11px}.value{fill:#e6edf3;font-size:23px;font-weight:600;letter-spacing:-.5px}.small{fill:#7d8590;font-size:10px}.name{fill:#c9d1d9;font-size:12px}.user{fill:#919aa6;font-size:11px}</style><defs><linearGradient id="glass" x1="0" y1="0" x2="1" y2="1"><stop stop-color="#1b2138"/><stop offset=".5" stop-color="#101824"/><stop offset="1" stop-color="#101b24"/></linearGradient><linearGradient id="edge" x1="0" y1="0" x2="1" y2="1"><stop stop-color="#a78bfa" stop-opacity=".75"/><stop offset=".45" stop-color="#6366f1" stop-opacity=".18"/><stop offset="1" stop-color="#22d3ee" stop-opacity=".6"/></linearGradient><radialGradient id="violet"><stop stop-color="#8b5cf6" stop-opacity=".23"/><stop offset="1" stop-color="#8b5cf6" stop-opacity="0"/></radialGradient><radialGradient id="cyan"><stop stop-color="#22d3ee" stop-opacity=".14"/><stop offset="1" stop-color="#22d3ee" stop-opacity="0"/></radialGradient><linearGradient id="sheen" x2="0" y2="1"><stop stop-color="#fff" stop-opacity=".05"/><stop offset=".55" stop-color="#fff" stop-opacity="0"/></linearGradient><clipPath id="card-clip"><rect x="1" y="1" width="358" height="188" rx="12"/></clipPath></defs><rect x=".5" y=".5" width="359" height="189" rx="12" fill="url(#glass)"/><g clip-path="url(#card-clip)"><ellipse cx="48" cy="12" rx="210" ry="150" fill="url(#violet)"/><ellipse cx="342" cy="178" rx="200" ry="145" fill="url(#cyan)"/><rect x="1" y="1" width="358" height="188" fill="url(#sheen)"/></g><rect x=".5" y=".5" width="359" height="189" rx="12" fill="none" stroke="url(#edge)"/><path d="M16 1H344" stroke="#fff" stroke-opacity=".1"/><text x="24" y="34" class="title" >Most Used Languages</text><path d="M24 51H336" stroke="#21262d"/><rect x="24" y="66" width="312" height="6" rx="3" fill="#161b22"/><rect x="24.000" y="66" width="255.543" height="6" rx="3" fill="#6366f1"/><rect x="282.543" y="66" width="19.130" height="6" rx="3" fill="#22d3ee"/><rect x="304.673" y="66" width="7.653" height="6" rx="3" fill="#34d399"/><rect x="315.326" y="66" width="7.523" height="6" rx="3" fill="#fbbf24"/><rect x="325.850" y="66" width="4.812" height="6" rx="3" fill="#a78bfa"/><rect x="333.661" y="66" width="2.339" height="6" rx="3" fill="#94a3b8"/><g><title>JavaScript: 86.0%</title><circle cx="28" cy="99" r="3.5" fill="#6366f1"/><text x="38" y="103" class="name" >JavaScript</text><text x="172" y="103" class="label" text-anchor="end">86.0%</text></g><g><title>TypeScript: 6.4%</title><circle cx="192" cy="99" r="3.5" fill="#22d3ee"/><text x="202" y="103" class="name" >TypeScript</text><text x="336" y="103" class="label" text-anchor="end">6.4%</text></g><g><title>HTML: 2.6%</title><circle cx="28" cy="125" r="3.5" fill="#34d399"/><text x="38" y="129" class="name" >HTML</text><text x="172" y="129" class="label" text-anchor="end">2.6%</text></g><g><title>C#: 2.5%</title><circle cx="192" cy="125" r="3.5" fill="#fbbf24"/><text x="202" y="129" class="name" >C#</text><text x="336" y="129" class="label" text-anchor="end">2.5%</text></g><g><title>CSS: 1.6%</title><circle cx="28" cy="151" r="3.5" fill="#a78bfa"/><text x="38" y="155" class="name" >CSS</text><text x="172" y="155" class="label" text-anchor="end">1.6%</text></g><g><title>Other: 0.8%</title><circle cx="192" cy="151" r="3.5" fill="#94a3b8"/><text x="202" y="155" class="name" >Other</text><text x="336" y="155" class="label" text-anchor="end">0.8%</text></g></svg>